<svg width="467" height="282" viewBox="0 0 467 282" fill="none" xmlns="http://www.w3.org/2000/svg">
<path d="M337.3 122.1C330 166.5 291.2 200.3 244.5 200.3C192.6 200.3 150.6 158.4 150.6 106.8C150.6 55.1 192.7 13.3 244.5 13.3C258.2 13.3 277.2 18.7 283 21.5C288.9 24.4 312 36.6 312 36.6V1.39999H298.8V14.4C283 5.19999 264.1 0 244.4 0C185.1 0 137.1 47.8 137.1 106.8C137.1 165.8 185.1 213.6 244.4 213.6C298.4 213.6 343.1 173.8 350.6 122.1H337.3Z" fill="white"/>
<path d="M271.8 38.6C263.2 35.2 254.1 33.4 244.4 33.4C203.7 33.4 170.7 66.2 170.7 106.8C170.7 147.3 203.7 180.2 244.4 180.2C279.8 180.2 309.3 155.3 316.5 122.2H330C322.7 162.6 287.2 193.3 244.4 193.3C196.4 193.3 157.5 154.5 157.5 106.7C157.5 58.9 196.4 20.1 244.4 20.1C253.7 20.1 259.5 21.4 266.5 22.9C280.4 26 301.1 38.7 318.2 48.1C318.2 48 318.2 1.2 318.2 1.2H331.4V71.6C331.4 71.8 286.5 44.5 271.8 38.6Z" fill="white"/>
<path d="M264.4 57.2C261 55.6 251.5 53.4 244.5 53.4C214.9 53.4 190.9 77.3 190.9 106.7C190.9 136.2 214.9 160 244.5 160C268.8 160 289.3 144 295.9 122H309.3C302.3 151.2 275.9 173 244.5 173C207.7 173 177.9 143.3 177.9 106.7C177.9 70.1 207.7 40.4 244.5 40.4C252.8 40.4 261.9 42.1 268.1 44.7C280 49.7 337.7 82.9 337.7 82.9V1.3H350.9V107C350.8 107 281.4 65 264.4 57.2Z" fill="white"/>
<path d="M347.9 281.5C338.5 281.5 335.2 277.8 335.2 267.3V244.6H329.5V232H335.2V216.8H350.7V232H357.4V244.6H350.7V262.7C350.7 267.9 351.7 268.4 355.4 268.4C355.9 268.4 356.4 268.4 357.4 268.4V281.4H347.9V281.5Z" fill="white"/>
<path d="M162.8 281.5C153.4 281.5 150.1 277.8 150.1 267.3V244.6H144.4V232H150.1V216.8H165.6V232H172.3V244.6H165.6V262.7C165.6 267.9 166.6 268.4 170.3 268.4C170.8 268.4 171.3 268.4 172.3 268.4V281.4H162.8V281.5Z" fill="white"/>
<path d="M176.7 281.5V232H192.2V281.5H176.7Z" fill="white"/>
<path d="M176.7 227V216.8H192.2V227H176.7Z" fill="white"/>
<path d="M88.4 190.1C88.4 206.5 81.8 213.5 66 213.5H54.9V167.3H66C81.5 167.3 88.4 174.4 88.4 190.1ZM77.3 190.5C77.3 181.6 74.7 178.2 67.7 178.2H66.2V202.7H67.7C74.7 202.7 77.3 199.3 77.3 190.5Z" fill="white"/>
<path d="M92.3 213.5V178.2H103.4V213.5H92.3Z" fill="white"/>
<path d="M310.9 281.5V252.1C310.9 246.5 309.8 244.6 306.7 244.6C303.1 244.6 301.8 247.2 301.8 254.6V281.5H286.3V232H301.8V238.1C304.7 233.5 306.9 231.6 312.2 231.6C322.3 231.6 326.5 236.8 326.5 249.8V281.4H310.9V281.5Z" fill="white"/>
<path d="M221.3 281.5V252.1C221.3 246.5 220.2 244.6 217.1 244.6C213.5 244.6 212.2 247.2 212.2 254.6V281.5H196.7V232H212.2V238.1C215.1 233.5 217.3 231.6 222.6 231.6C232.7 231.6 236.9 236.8 236.9 249.8V281.4H221.3V281.5Z" fill="white"/>
<path d="M92.3 174.6V167.3H103.4V174.6H92.3Z" fill="white"/>
<path d="M404.6 281.5V216.8H420.1V281.5H404.6Z" fill="white"/>
<path d="M125.8 281.5V252.1C125.8 246.5 124.7 244.6 121.6 244.6C118 244.6 116.7 247.2 116.7 254.6V281.5H101.2V232H116.7V238.1C119.6 233.5 121.8 231.6 127.1 231.6C137.2 231.6 141.4 236.8 141.4 249.8V281.4H125.8V281.5Z" fill="white"/>
<path d="M27 281.5C10.2 281.5 0 268.7 0 247.5C0 226.4 10.1 213.5 26.7 213.5C41.9 213.5 51.4 223.6 51.9 240.7H34.5C34 232.5 31.5 228.7 26.7 228.7C20.8 228.7 17.4 235.6 17.4 247.4C17.4 259.2 20.9 266.2 26.8 266.2C31.5 266.2 34.1 262.2 34.5 254.5H51.9C51.3 271.3 41.9 281.5 27 281.5Z" fill="white"/>
<path d="M137.6 199.2H118.1C118.1 203.9 119.9 205.7 122.3 205.7C125.2 205.7 126.1 204.5 126.5 202.7H137.2C135.4 210.1 130 213.6 122.4 213.6C112.6 213.6 107 206.8 107 195.9C107 185.2 113 178.2 122.3 178.2C132.8 178.2 137.5 184.7 137.6 199.2ZM126.5 192C126.5 188.2 124.8 186 122.3 186C119.9 186 118.1 188.1 118.1 192H126.5Z" fill="white"/>
<path d="M97.9 256.5C97.9 271.6 89.5 281.4 76.4 281.4C63.3 281.4 55 271.6 55 256.5C55 241.4 63.3 231.6 76.4 231.6C89.5 231.6 97.9 241.4 97.9 256.5ZM82.4 256.5C82.4 248.6 80.4 244.6 76.4 244.6C72.5 244.6 70.5 248.7 70.5 256.5C70.5 264.4 72.5 268.4 76.4 268.4C80.4 268.5 82.4 264.4 82.4 256.5Z" fill="white"/>
<path d="M283.1 261.3H255.6C255.6 267.9 258.2 270.4 261.5 270.4C265.5 270.4 266.8 268.7 267.4 266.1H282.5C280 276.5 272.3 281.4 261.6 281.4C247.8 281.4 239.9 271.8 239.9 256.5C239.9 241.4 248.4 231.6 261.5 231.6C276.3 231.6 282.9 240.8 283.1 261.3ZM267.5 251.1C267.5 245.8 265.1 242.7 261.6 242.7C258.2 242.7 255.7 245.7 255.7 251.1H267.5Z" fill="white"/>
<path d="M401.7 281.5H387.2C386.6 280.3 386.5 278.8 386.1 277.1C383.4 280.1 380.8 281.5 376.1 281.5C367 281.5 360.5 275.3 360.5 266.7C360.5 258.7 365.4 254.2 375.9 252C383 250.6 384.5 249.3 384.5 246.3C384.5 244.2 382.9 242.7 380.7 242.7C377.6 242.7 376.1 244.8 376.1 249.1V250H361.8V249C361.8 237.9 368.5 231.6 381.2 231.6C394.7 231.6 399.9 237.1 399.9 250V266.9C400.2 274.3 400.6 278.6 401.7 281.5ZM384.6 261.3C384.6 260.7 384.6 260.2 384.5 259.2C377.6 260.5 374.5 262.7 374.5 266.3C374.5 268.8 376.2 270.5 378.9 270.5C382.9 270.4 384.6 267.7 384.6 261.3Z" fill="white"/>
<path d="M466.4 261.3H438.9C438.9 267.9 441.5 270.4 444.8 270.4C448.8 270.4 450.1 268.7 450.7 266.1H465.8C463.3 276.5 455.6 281.4 444.9 281.4C431.1 281.4 423.2 271.8 423.2 256.5C423.2 241.4 431.7 231.6 444.8 231.6C459.6 231.6 466.2 240.8 466.4 261.3ZM450.8 251.1C450.8 245.8 448.4 242.7 444.9 242.7C441.5 242.7 439 245.7 439 251.1H450.8Z" fill="white"/>
</svg>
