<svg xmlns="http://www.w3.org/2000/svg" width="95" height="24" viewBox="0 0 95 24"><g fill="none"><rect width="94.737" height="24" fill="#008746"/><path fill="#FFF" d="M0,24 L0,0 L10.6811146,0 C13.2141852,0 17.3008725,0 19.6312975,2.54057869 C21.9617225,5.08115737 22.1052632,9.44248412 22.1052632,11.8560339 C22.1052632,22.1199718 16.7858148,23.957657 9.83675767,23.9237826 L0,24 Z M6.99127498,19.6556104 L8.23247959,19.6556104 L9.3132564,19.6556104 C10.1306676,19.6704231 10.9469472,19.5879846 11.7450042,19.4100212 C14.3962848,18.7918137 15.0295525,17.0134086 15.3166338,15.1757234 C15.4687422,14.0786764 15.5421085,12.9720903 15.5361666,11.8645025 C15.5611617,10.6286322 15.4763913,9.3929842 15.2828596,8.17219478 C15.1655398,7.14586989 14.755044,6.17540485 14.1007599,5.37755822 C12.8595553,4.02258292 10.9175345,4.05638049 9.54123276,4.05638049 L7.00816212,4.05638049 L7.00816212,19.6556104 L6.99127498,19.6556104 Z"/><polygon fill="#FFF" points="26.526 24 26.526 0 42.133 0 42.133 4.073 33.105 4.073 33.105 9.188 41.843 9.188 41.843 13.177 33.096 13.177 33.096 19.266 42.947 19.266 42.947 24"/><path fill="#FFF" d="M62.7610318,24 L52.8179155,24 L46.1052632,0 L53.2878012,0 L56.9881508,15.1587862 C57.4244732,16.8525053 57.525163,17.3690896 57.8943589,19.4777699 C58.3474629,17.2420607 58.4984976,16.8525053 58.9012567,15.3366267 L62.9708022,0 L69.4736842,0 L62.8029859,24 L62.7610318,24 Z"/><polygon fill="#FFF" points="94.737 24 87.829 24 82.421 13.804 79.514 17.386 79.514 24 72.632 24 72.632 0 79.514 0 79.514 9.959 86.961 0 93.718 0 86.548 8.773"/></g></svg>