<?xml version="1.0" encoding="UTF-8"?>
<svg width="50px" height="40px" viewBox="0 0 50 40" version="1.1" xmlns="http://www.w3.org/2000/svg" xmlns:xlink="http://www.w3.org/1999/xlink">
    <title>7AB8E4AC-C4F6-4459-8282-DCECA0DB4943</title>
    <g id="02-Layout" stroke="none" stroke-width="1" fill="none" fill-rule="evenodd">
        <g id="02.08-Layout/Template-Flows" transform="translate(-66.000000, -675.000000)" fill="#C5281C">
            <g id="Web-Responsive-|-S" transform="translate(50.000000, 649.000000)">
                <g id="03_Navigation_&amp;_IA/02_FunnelHeader/03.02.01_Funnel_Header/S" transform="translate(0.000000, 18.000000)">
                    <g id="Generali-Logo-vertical" transform="translate(16.000000, 8.000000)">
                        <path d="M40.0188306,26.5276267 L41.0588823,26.1403946 L41.0588823,26.1403946 C42.5368505,25.531887 42.7558087,25.1446549 42.6463296,24.1489153 L42.6463296,20.1659566 C43.7411208,23.0425379 44.8359121,25.0340172 46.970755,25.0340172 C47.2444528,25.0340172 47.5728902,24.9786983 47.9013276,24.9233794 L48.722421,24.7574228 L48.1202858,24.0935964 C47.7371089,23.7063643 47.5728902,23.3744511 47.3539319,22.987219 C47.2444528,22.8212624 47.1897133,22.6553058 47.0802341,22.4893492 C46.5875781,21.6595661 45.3833077,21.3829718 44.3979956,21.8255227 C43.9600791,20.9404208 43.5221626,19.7787245 42.974767,18.3404339 L42.8652878,18.0638395 C42.7558087,17.8425641 42.7010692,17.6212886 42.59159,17.4000131 L42.59159,17.3446942 L42.59159,17.3446942 C42.2631527,16.5702301 41.8799757,15.8510847 41.4967988,15.1319394 C41.1136219,14.468113 40.7304449,13.9149243 40.2925284,13.4170545 C39.1429976,12.0894016 37.6650294,11.2596185 35.8586239,10.9277053 C34.599614,10.7064298 33.723781,10.651111 32.5742502,10.5957921 C32.3552919,10.5957921 32.0815941,10.5957921 31.8626359,10.5404732 C31.3699798,10.4851544 30.3299281,10.4298355 29.2898765,10.3191977 C28.5782621,10.2638789 27.9213874,10.20856 27.3739918,10.1532411 C27.4287313,9.98728453 27.4287313,9.82132792 27.4287313,9.6553713 C27.4287313,9.43409582 27.4287313,9.21282034 27.3739918,9.04686373 L34.599614,9.04686373 C36.4607591,9.04686373 37.8292481,8.21708068 38.595602,6.55751458 C40.4567471,6.55751458 41.7704966,5.67241266 42.59159,4.06816543 L42.8652878,4.06816543 C44.7811725,4.06816543 46.1496616,3.18306351 46.970755,1.41285967 L47.2444528,0.914989841 L22.8306081,0.914989841 C21.2431608,0.914989841 19.8746718,1.96604837 19.3272762,3.62561447 L19.3272762,3.68093334 C18.8893597,2.51923707 18.1777453,1.52349741 17.1924332,0.914989841 C15.8239442,0.0852067903 14.2912364,-0.19138756 13.0869661,0.19584453 C12.7037891,0.30648227 12.2658726,0.472438881 11.9374353,0.693714361 C11.6637375,0.914989841 11.225821,1.19158419 10.9521232,1.57881628 C10.6236858,1.96604837 10.349988,2.4639182 10.1310297,2.90646916 C9.96681103,3.0171069 9.85733191,3.12774464 9.80259235,3.23838238 L9.52889454,3.79157108 L9.52889454,3.84688995 C9.20045717,4.62135413 8.76254067,5.17454283 8.4341033,5.61709379 C8.10566592,6.00432588 8.10566592,6.39155797 8.10566592,6.61283345 C8.16040549,6.8894278 8.26988461,7.11070328 8.4341033,7.27665989 L8.4341033,7.27665989 C8.32462417,7.4426165 8.26988461,7.66389198 8.26988461,7.82984859 C8.26988461,8.49367503 8.81728023,8.99154486 9.52889454,8.99154486 C10.0215506,8.99154486 10.4594671,8.77026938 10.8973836,8.43835616 C11.0616023,8.32771842 11.5542583,7.9958052 11.718477,7.9958052 C11.9374353,7.9958052 12.101654,8.16176181 12.101654,8.38303729 C12.101654,8.93622599 11.4447792,9.21282034 10.9521232,9.21282034 L9.96681103,9.32345808 C9.25519673,9.37877695 8.92675936,9.76600905 8.92675936,10.0979223 C8.92675936,10.4298355 9.09097804,10.651111 9.20045717,10.7617487 L9.25519673,10.8170676 L9.52889454,11.0383431 L8.37936373,12.8085469 C7.61300987,12.0894016 6.73717687,11.7021695 5.970823,11.6468506 C5.47816694,11.6468506 5.04025045,11.7574884 4.71181307,12.0894016 C4.60233395,12.2000393 4.54759439,12.2553582 4.49285483,12.3659959 L4.49285483,12.3659959 C3.6717614,12.3659959 3.01488665,12.8085469 2.68644928,13.3064167 C2.30327234,13.8596054 2.46749103,14.8000262 2.90540753,15.5191715 L0.168429422,16.2936357 L0.168429422,29.1276136 L48.8866397,29.1276136 L48.8866397,26.5829455 L40.0188306,26.5829455 L40.0188306,26.5276267 Z M46.3138803,23.0425379 C46.4233594,23.2084945 46.4780989,23.3744511 46.5875781,23.4850888 C46.6970572,23.6510454 46.8065363,23.817002 46.9160154,24.0382775 C46.1496616,23.9829586 45.5475264,23.5404077 45.0548703,22.7659435 C45.4927868,22.544668 46.094922,22.7106246 46.3138803,23.0425379 L46.3138803,23.0425379 Z M35.7491448,12.0894016 C37.3365921,12.3659959 38.595602,13.0851412 39.5809141,14.1915186 C39.7998724,14.4127941 39.9640911,14.6893885 40.1830493,14.9659828 C37.5555503,14.6340696 36.6249778,14.2468375 35.1470096,11.9787638 C35.3659678,11.9787638 35.5301865,12.0340827 35.7491448,12.0894016 L35.7491448,12.0894016 Z M34.599614,8.21708068 L29.6183138,8.21708068 C30.0562303,7.82984859 30.3846677,7.33197876 30.6583655,6.77879006 L37.3913316,6.77879006 C36.843936,7.77452972 35.9133635,8.21708068 34.599614,8.21708068 L34.599614,8.21708068 Z M38.5408624,5.7830504 L33.5595623,5.7830504 C33.9974788,5.39581831 34.3806557,4.89794848 34.6543535,4.28944091 L41.3873197,4.28944091 C40.839924,5.28518057 39.9093515,5.7830504 38.5408624,5.7830504 L38.5408624,5.7830504 Z M38.9240394,1.96604837 L45.602266,1.96604837 C44.9453912,2.85115029 44.0695582,3.29370125 42.8105483,3.29370125 L37.8292481,3.29370125 C38.2671646,2.90646916 38.6503416,2.4639182 38.9240394,1.96604837 L38.9240394,1.96604837 Z M11.7732166,2.18732385 C11.9374353,1.96604837 12.2111331,1.74477289 12.4848309,1.52349741 C12.7037891,1.3575408 13.0322265,1.19158419 13.3606639,1.13626532 C13.8533199,1.02562758 14.4007156,1.02562758 14.9481112,1.13626532 L13.1417056,2.24264272 C12.9227474,2.24264272 12.7037891,2.18732385 12.4848309,2.18732385 C12.1563935,2.18732385 11.8826957,2.18732385 11.6637375,2.24264272 C11.718477,2.24264272 11.718477,2.24264272 11.7732166,2.18732385 L11.7732166,2.18732385 Z M9.69311322,10.1532411 C9.69311322,10.0979223 9.74785279,10.0426034 9.80259235,10.0426034 L10.6784253,10.0979223 C11.718477,10.0426034 12.8132683,9.60005243 12.9227474,8.49367503 C12.9227474,7.71921085 12.3753518,7.00006554 11.6637375,7.00006554 C11.2805605,7.00006554 10.7879045,7.27665989 10.2952484,7.60857311 C9.96681103,7.82984859 9.69311322,7.9958052 9.52889454,7.9958052 C9.41941541,7.9958052 9.30993629,7.88516746 9.30993629,7.82984859 C9.30993629,7.82984859 9.30993629,7.82984859 9.30993629,7.77452972 L9.85733191,7.00006554 L9.36467585,6.66815232 C9.25519673,6.61283345 9.09097804,6.44687684 9.09097804,6.39155797 C9.09097804,6.3362391 9.1457176,6.28092023 9.1457176,6.22560136 C9.36467585,6.00432588 9.5836341,5.72773153 9.80259235,5.34049944 C9.96681103,5.11922396 10.0215506,5.00858622 10.2405088,5.00858622 C10.4594671,5.00858622 10.6784253,5.17454283 10.6784253,5.45113718 C10.6784253,5.61709379 10.842644,5.72773153 11.0616023,5.72773153 C11.2805605,5.72773153 11.3900396,5.56177492 11.4995188,5.45113718 C11.4995188,5.45113718 11.9921748,5.00858622 11.718477,4.78731074 C11.4447792,4.56603526 10.2405088,5.06390509 10.5689462,3.95752769 L10.6784253,3.79157108 C10.7879045,3.62561447 11.3900396,3.18306351 12.5395705,3.18306351 C12.7585287,3.18306351 12.9774869,3.18306351 13.2511848,3.23838238 L13.4154034,3.23838238 L15.9334233,1.68945402 C15.9334233,1.74477289 15.9881629,1.80009176 15.9881629,1.80009176 L15.9881629,1.80009176 C16.097642,2.57455594 15.6597255,3.45965786 14.8933716,3.90220882 L14.5649342,4.06816543 L14.7838925,5.2298617 C14.1270178,5.45113718 13.6891013,5.94900701 13.6891013,6.55751458 C13.6891013,6.77879006 13.7438408,7.05538441 13.7985804,7.33197876 C13.8533199,7.71921085 13.9627991,8.10644294 13.9627991,8.49367503 C13.9627991,9.71069018 12.3206122,10.4851544 10.9521232,10.4298355 L10.8973836,10.4298355 C10.842644,10.4298355 9.96681103,10.3745166 9.74785279,10.20856 C9.69311322,10.2638789 9.69311322,10.20856 9.69311322,10.1532411 L9.69311322,10.1532411 Z M3.45280315,13.9149243 C3.6717614,13.5830111 4.10967789,13.3617356 4.65707351,13.4170545 L5.09499001,13.4723733 L5.2592087,13.0851412 C5.31394826,12.9745035 5.36868782,12.8638658 5.42342738,12.8085469 C5.53290651,12.6979092 5.75186475,12.6425903 5.970823,12.6425903 C6.57295819,12.6425903 7.33931205,13.0851412 7.94144724,13.7489677 C8.16040549,13.9702432 8.37936373,14.3021564 8.54358242,14.5787507 C8.59832198,14.6340696 8.59832198,14.6893885 8.65306154,14.7447073 C8.70780111,14.8000262 8.76254067,14.910664 8.76254067,14.910664 C8.76254067,14.9659828 9.09097804,15.4085338 9.09097804,15.4638527 C9.30993629,15.1872583 9.52889454,14.8553451 9.69311322,14.5787507 L9.69311322,14.5234319 C9.63837366,14.4127941 9.52889454,14.2468375 9.47415498,14.1361998 L9.41941541,14.0808809 L9.41941541,14.0808809 C9.41941541,14.0808809 9.36467585,14.025562 9.36467585,13.9702432 C9.30993629,13.8596054 9.20045717,13.6936488 9.1457176,13.6383299 L10.4594671,11.5362129 C10.7879045,11.5915318 11.0616023,11.5915318 11.225821,11.5915318 L11.2805605,11.5915318 C13.1417056,11.5915318 15.0575903,10.4851544 15.0575903,8.71495051 L15.0575903,8.65963164 C15.0575903,8.16176181 14.9481112,7.71921085 14.8933716,7.33197876 C14.8386321,7.05538441 14.7838925,6.83410893 14.7838925,6.72347119 C14.7838925,6.50219571 15.0575903,6.28092023 15.4407672,6.28092023 L16.0429024,6.28092023 L15.7692046,4.73199187 C16.590298,4.1234843 17.1376937,3.07242577 17.0829541,2.13200498 C18.0135267,2.85115029 18.6156618,4.06816543 18.725141,5.34049944 C18.7798805,5.72773153 18.6704014,6.22560136 18.5609223,6.77879006 L18.5061827,7.00006554 L18.5061827,7.00006554 C18.2872245,7.88516746 17.9587871,8.82558825 17.7945684,9.26813921 L17.6303497,9.6553713 L18.0135267,9.87664679 C18.6704014,10.2638789 19.1083179,10.5404732 19.1083179,11.4255751 C19.1083179,12.4766337 18.1777453,13.2510979 17.3019124,13.4170545 L16.0429024,13.6383299 L17.0829541,14.3574753 C17.4113915,14.5787507 17.6303497,14.9659828 17.6303497,15.3532149 C17.6303497,16.0170414 17.0829541,16.5149112 16.4260794,16.5149112 L16.0429024,16.5149112 L15.9334233,16.8468244 C15.5502464,18.0638395 15.1670694,18.6723471 13.8533199,18.8383037 L13.8533199,17.5659697 L13.8533199,17.012781 L13.7985804,15.8510847 L12.9774869,16.6808678 C12.7037891,16.9574621 12.2111331,17.1787376 11.6637375,17.2893754 L11.6637375,16.2936357 L5.91608344,14.7447073 L3.89071964,15.297896 C3.45280315,14.8553451 3.34332402,14.0808809 3.45280315,13.9149243 L3.45280315,13.9149243 Z M1.81061628,26.5276267 L5.970823,25.4212493 L10.1310297,26.5276267 L1.81061628,26.5276267 L1.81061628,26.5276267 Z M10.6784253,25.6425247 L5.91608344,24.3701907 L1.15374154,25.6425247 L1.15374154,17.0680999 L5.91608344,15.7957659 L10.6784253,17.0680999 L10.6784253,25.6425247 L10.6784253,25.6425247 Z M12.9227474,23.9829586 C12.4848309,24.5914662 12.4300913,25.4765681 12.7585287,26.5276267 L11.718477,26.5276267 L11.718477,18.3404339 C12.101654,18.285115 12.4848309,18.1744773 12.8680078,18.0085207 C12.8680078,18.3404339 12.8132683,18.6723471 12.7585287,19.0042603 C12.7585287,19.1148981 12.7037891,19.1702169 12.7037891,19.2808547 L12.59431,19.8893623 L13.1964452,19.8893623 C14.0722782,19.8893623 14.7291529,19.7234056 15.2765486,19.5021302 L15.2765486,22.9319001 C15.2765486,23.0425379 15.221809,23.0978567 15.1123299,23.0978567 L14.9481112,23.0978567 C14.0722782,23.0425379 13.3059243,23.3744511 12.9227474,23.9829586 L12.9227474,23.9829586 Z M23.8706598,24.2042341 C23.4874829,24.6467851 23.1590455,25.3659304 23.3780037,26.5276267 L17.1924332,26.5276267 C17.849308,26.4723078 18.341964,26.3063512 18.6704014,25.974438 C19.0535783,25.531887 19.1083179,24.9786983 19.1083179,24.5361473 C19.1083179,24.4808285 19.1630575,24.3701907 19.4914948,24.2042341 L20.0388905,23.9829586 L19.7104531,23.4850888 C19.1630575,22.6553058 19.4367553,20.8851019 19.600974,19.8893623 L19.6557135,19.8893623 C21.7358169,19.8893623 23.1043059,19.4468113 24.5275345,19.0042603 C24.9107115,18.8936226 25.2938884,18.7829849 25.6770654,18.6170282 L25.6770654,18.6170282 C25.6770654,18.6170282 26.1149818,18.5063905 26.6623775,18.3404339 L28.6877413,21.714885 L28.6877413,21.7702038 C28.9066995,22.0467982 28.9066995,22.2680737 28.5235226,22.6553058 L27.5382105,23.7616832 L25.8960236,23.4297699 L25.8960236,23.4297699 C25.1844093,23.3191322 24.3633159,23.6510454 23.8706598,24.2042341 L23.8706598,24.2042341 Z M24.4180554,26.5276267 C24.2538367,25.8084814 24.3085763,25.2552927 24.6370137,24.8680606 C24.965451,24.4808285 25.4033675,24.4255096 25.7865445,24.4255096 L27.7024291,24.7574228 L27.7571687,24.7574228 L28.0308665,24.7574228 L29.3993556,23.2638133 L29.3993556,23.2638133 C29.6183138,22.987219 30.3299281,22.1574359 29.6183138,21.1063774 L27.8119083,18.1191584 C28.0856061,18.0638395 28.4140435,18.0638395 28.6877413,18.0638395 L28.6877413,18.0638395 C28.6877413,18.0638395 29.6183138,18.0638395 30.6036259,18.6170282 C30.7131051,18.8936226 30.9320633,19.2808547 31.096282,19.7234056 C31.4794589,20.4978698 31.972115,21.4936095 32.0815941,21.8808416 C32.1363337,21.9914793 32.2458128,22.3787114 31.8078963,22.8765812 L28.3593039,26.5829455 L24.4180554,26.5829455 L24.4180554,26.5276267 Z M36.2418008,26.5276267 L29.6730534,26.5276267 L32.4647711,23.5404077 C33.0121667,22.9319001 33.2311249,22.2127548 32.9574271,21.5489284 C32.847948,21.1616963 32.4647711,20.3872321 32.0815941,19.557449 C33.1763854,20.0553189 34.8733118,20.5531887 38.3219042,20.8297831 C38.7598207,20.8851019 38.8692998,20.9957397 38.9240394,21.3829718 L39.0882581,22.8765812 L37.2818525,23.2638133 C36.6797173,23.3744511 36.1870613,23.7616832 35.968103,24.3701907 C35.7491448,25.0340172 35.8586239,25.8084814 36.2418008,26.5276267 L36.2418008,26.5276267 Z M36.9534151,24.7574228 C37.0628943,24.4808285 37.227113,24.3148719 37.5008108,24.259553 L40.1830493,23.6510454 L39.9640911,21.2170151 L39.9640911,21.1616963 C39.9093515,20.8297831 39.6903932,19.8893623 38.4313833,19.7787245 C33.6143019,19.3914924 32.5195106,18.6723471 31.3152402,17.8978829 L31.3152402,17.8978829 L31.3152402,17.8978829 L31.2605007,17.8425641 C30.0014908,17.012781 28.7424808,17.012781 28.6330017,17.012781 C27.2645127,17.012781 25.5675862,17.5659697 25.4033675,17.6212886 C24.965451,17.7319263 24.5822741,17.8978829 24.1990972,18.0085207 C22.6663894,18.5063905 21.4073795,18.9489415 19.217797,18.8383037 L18.8346201,18.8383037 L18.725141,19.2255358 C18.6704014,19.5021302 18.0135267,21.9914793 18.6156618,23.5404077 C18.0682662,23.9829586 18.0682662,24.4255096 18.0682662,24.5361473 C18.0682662,25.089336 17.9587871,25.1999738 17.9040475,25.2552927 C17.6303497,25.531887 16.8092563,25.531887 16.097642,25.531887 L16.097642,25.531887 L15.8239442,25.531887 L15.6597255,25.7531625 C15.221809,26.3616701 14.2912364,26.5276267 13.6891013,26.3616701 C13.4154034,25.531887 13.4154034,24.9233794 13.6891013,24.5361473 C14.0175386,24.0935964 14.6196738,24.0382775 14.8933716,24.0382775 L15.0575903,24.0382775 C15.7144651,24.0382775 16.2071211,23.4850888 16.2071211,22.8765812 L16.2071211,18.5063905 C16.4260794,18.2297962 16.5355585,17.8425641 16.6997772,17.455332 C17.7398289,17.2893754 18.5609223,16.4042734 18.5609223,15.297896 C18.5609223,14.8553451 18.4514432,14.468113 18.2324849,14.1361998 C19.217797,13.6383299 20.0388905,12.6979092 20.0388905,11.4255751 C20.0388905,10.1532411 19.3820157,9.54473356 18.7798805,9.21282034 C18.9440992,8.71495051 19.217797,7.88516746 19.4367553,7.00006554 L20.2578487,3.95752769 C20.6410256,2.74051255 21.6263378,1.96604837 22.7758686,1.96604837 L37.6650294,1.96604837 C37.0081547,2.85115029 36.1323217,3.29370125 34.8733118,3.29370125 L25.9507632,3.29370125 L25.4581071,4.28944091 L33.5595623,4.28944091 C32.9026875,5.28518057 31.972115,5.7830504 30.6583655,5.7830504 L24.8012324,5.7830504 L24.3085763,6.77879006 L29.5088347,6.77879006 C28.85196,7.77452972 27.976127,8.21708068 26.6623775,8.21708068 L23.4874829,8.21708068 L22.9948268,9.21282034 L26.3339401,9.21282034 C26.3886797,9.26813921 26.4434192,9.43409582 26.4434192,9.82132792 C26.4434192,10.4851544 25.8960236,10.9830242 25.2391489,10.9830242 C25.0201906,10.9830242 24.8012324,10.9277053 24.472795,10.7617487 C24.3085763,10.7064298 24.1990972,10.651111 24.0348785,10.5957921 L23.2685246,11.3149374 C23.4327433,11.3702563 23.5422224,11.4255751 23.7064411,11.480894 L23.7064411,11.480894 C24.3633159,11.7574884 24.7464928,11.923445 25.2391489,11.923445 C25.841284,11.923445 26.3886797,11.6468506 26.8265962,11.2596185 C27.3739918,11.3149374 28.3045643,11.3702563 29.2351369,11.4255751 C30.3299281,11.5362129 31.3152402,11.5915318 31.8626359,11.6468506 C32.1363337,11.6468506 32.3552919,11.6468506 32.6289897,11.7021695 C33.0669062,11.7021695 33.5048227,11.7574884 33.8879997,11.7574884 C35.9133635,15.0766206 36.9534151,15.5191715 40.8946636,16.0170414 C41.1683614,16.5149112 41.4420592,17.0680999 41.6610175,17.6212886 L41.6610175,24.0935964 L41.6610175,24.1489153 L41.6610175,24.5914662 C41.4967988,24.7574228 40.8946636,25.0340172 40.7304449,25.089336 L37.3913316,26.4723078 C36.9534151,25.8638002 36.7891965,25.2552927 36.9534151,24.7574228 L36.9534151,24.7574228 Z M9.63837366,18.3957528 L6.46347906,17.5659697 L6.46347906,18.6170282 L9.63837366,19.4468113 L9.63837366,18.3957528 Z M2.24853278,19.4468113 L5.42342738,18.6170282 L5.42342738,17.5659697 L2.24853278,18.3957528 L2.24853278,19.4468113 Z M2.24853278,21.5489284 L5.42342738,20.7191453 L5.42342738,19.6680868 L2.24853278,20.4978698 L2.24853278,21.5489284 Z M9.63837366,20.4978698 L6.46347906,19.6680868 L6.46347906,20.7191453 L9.63837366,21.5489284 L9.63837366,20.4978698 Z M9.63837366,22.5999869 L6.46347906,21.7702038 L6.46347906,22.8212624 L9.63837366,23.6510454 L9.63837366,22.5999869 Z M2.24853278,23.6510454 L5.42342738,22.8212624 L5.42342738,21.7702038 L2.24853278,22.5999869 L2.24853278,23.6510454 Z M44.7811725,36.8169365 C44.5074747,39.140329 43.9053395,39.4722422 42.2631527,39.4722422 L42.1536735,39.4722422 L42.1536735,32.0595137 L43.1937252,32.0595137 L43.1937252,31.6722816 L39.7998724,31.6722816 L39.7998724,32.0595137 L40.839924,32.0595137 L40.839924,39.5275611 L40.0188306,39.5275611 L37.0081547,31.4510061 L36.5702382,31.4510061 C36.5702382,31.4510061 34.0522184,38.7530969 34.0522184,38.8084158 C34.0522184,38.8084158 33.8879997,39.4169234 33.4500832,39.5275611 C33.0669062,39.5275611 33.1216458,39.3616045 33.1216458,39.2509668 L33.1216458,37.8126761 C33.1216458,37.4254441 33.0669062,36.595661 32.7384689,36.2084289 C32.3005524,35.765878 31.5889381,35.765878 31.5889381,35.7105591 C31.5889381,35.7105591 33.4500832,35.323327 33.4500832,33.5531232 C33.4500832,32.2807891 32.5742502,31.6722816 31.1510216,31.6169627 L27.100294,31.6169627 L27.100294,32.0041948 L28.1403456,32.0041948 L28.1403456,39.4722422 L27.100294,39.4722422 L27.100294,39.8594743 L30.4394073,39.8594743 L30.4394073,39.4722422 L29.3993556,39.4722422 L29.3993556,35.8765157 L30.7678446,35.8765157 C33.1763854,36.0977912 30.3299281,39.8594743 33.5048227,39.8594743 L35.475447,39.8594743 L35.475447,39.4722422 C35.3659678,39.4722422 34.6543535,39.4722422 34.599614,38.9743724 C34.5448744,38.5871403 35.09227,37.2594874 35.09227,37.2594874 L37.8292481,37.2594874 C37.8292481,37.2594874 38.6503416,39.4722422 38.7050811,39.4722422 L37.7745086,39.4722422 L37.7745086,39.8594743 L45.1643495,39.8594743 L45.1643495,36.8169365 L44.7811725,36.8169365 L44.7811725,36.8169365 Z M30.7131051,35.4892836 L29.3993556,35.4892836 L29.3993556,32.0595137 L31.096282,32.0595137 C32.0815941,32.2254703 32.1363337,33.3871665 32.1363337,33.7190798 C32.1363337,34.6041817 31.7531567,35.4892836 30.7131051,35.4892836 L30.7131051,35.4892836 Z M35.3112283,36.9275742 L36.5154986,33.3871665 L37.7745086,36.9275742 L35.3112283,36.9275742 L35.3112283,36.9275742 Z M23.0495664,32.0041948 C25.1296697,32.0041948 25.9507632,31.8935571 26.2792005,34.4935439 L26.4981588,34.4935439 L26.4981588,31.6169627 L18.1777453,31.6169627 L18.1777453,32.0041948 L18.3967036,32.0041948 C18.6704014,32.0041948 19.3820157,32.0041948 19.4367553,32.6680212 L19.4367553,32.6680212 L19.4367553,37.4254441 L15.5502464,31.6169627 L13.4154034,31.6169627 L13.4154034,32.0041948 L13.7438408,32.0041948 C14.1817573,32.0041948 14.7291529,32.0041948 14.7838925,32.6680212 L14.7838925,38.7530969 C14.7838925,39.3616045 13.9080595,39.58288 13.5248826,39.58288 L13.5248826,39.58288 L13.5248826,39.8594743 L16.4260794,39.8594743 L16.4260794,39.58288 C16.0429024,39.58288 15.1670694,39.3616045 15.1670694,38.7530969 L15.1670694,33.3871665 C16.6997772,35.5999213 19.600974,39.8594743 19.6557135,39.8594743 L19.8199322,39.8594743 L19.8199322,32.6680212 C19.8746718,32.0595137 20.5315465,32.0041948 20.8599839,32.0041948 L21.7905564,32.0041948 L21.7905564,39.4722422 L20.6957652,39.4722422 L20.6957652,39.8594743 L26.6076379,39.8594743 L26.6076379,36.8169365 L26.3339401,36.8169365 C26.0602423,39.140329 25.4581071,39.4722422 23.8159202,39.4722422 L23.0495664,39.4722422 L23.0495664,35.8765157 L23.4874829,35.8765157 C24.1990972,35.8765157 24.6370137,36.3190667 24.8012324,37.5914007 L25.0749302,37.5914007 L25.0749302,33.8297175 L24.8012324,33.8297175 C24.8012324,33.8297175 24.7464928,35.4339647 23.4874829,35.4339647 L23.1043059,35.4339647 L23.1043059,32.0041948 L23.0495664,32.0041948 Z M48.8319001,32.0595137 L48.8319001,31.6169627 L45.4927868,31.6169627 L45.4927868,32.0595137 L46.5328385,32.0595137 L46.5328385,39.4722422 L45.4927868,39.4722422 L45.4927868,39.8594743 L48.8319001,39.8594743 L48.8319001,39.4722422 L47.7371089,39.4722422 L47.7371089,32.0595137 L48.8319001,32.0595137 Z M9.41941541,35.4339647 L9.41941541,32.0595137 C11.4995188,32.0595137 12.2658726,31.9488759 12.6490496,34.5488628 L12.8680078,34.5488628 L12.8680078,31.6722816 L7.12035381,31.6722816 L7.12035381,32.0595137 L8.10566592,32.0595137 L8.10566592,39.5275611 L7.01087468,39.5275611 L7.01087468,39.9147932 L12.9227474,39.9147932 L12.9227474,36.8722554 L12.6490496,36.8722554 C12.3753518,39.1956479 11.7732166,39.5275611 10.1310297,39.5275611 L9.36467585,39.5275611 L9.36467585,35.9318346 L9.80259235,35.9318346 C10.5142067,35.9318346 10.9521232,36.3743855 11.1163418,37.6467195 L11.3900396,37.6467195 L11.3900396,33.8850364 L11.1163418,33.8850364 C11.1163418,33.8850364 11.0616023,35.4892836 9.80259235,35.4892836 L9.41941541,35.4892836 L9.41941541,35.4339647 Z M7.06561424,35.5446025 L3.83598008,35.5446025 L3.83598008,35.9318346 L4.93077132,35.9318346 L4.93077132,38.5871403 C4.76655264,39.2509668 3.72650096,39.5275611 3.45280315,39.5275611 C1.37269979,39.5275611 1.53691847,36.4850233 1.53691847,35.6552402 C1.53691847,34.9360949 1.48217891,31.7829193 3.45280315,31.7829193 C4.87603176,31.7829193 5.58764607,33.1658911 5.86134388,34.4382251 L6.08030213,34.4382251 L6.08030213,31.4510061 C6.08030213,31.4510061 5.09499001,32.1701514 5.09499001,32.1148325 C5.09499001,32.1148325 4.65707351,31.4510061 3.39806358,31.4510061 C0.989522853,31.4510061 0.0589502976,33.8850364 0.0589502976,35.5999213 C0.0589502976,37.1488497 0.770564605,39.8594743 3.39806358,39.8594743 C4.21915702,39.8594743 4.76655264,39.4169234 5.09499001,38.9743724 L6.13504169,39.8041555 L6.13504169,35.8765157 L7.01087468,35.8765157 L7.01087468,35.5446025 L7.06561424,35.5446025 Z" id="Shape"></path>
                    </g>
                </g>
            </g>
        </g>
    </g>
</svg>