<svg width="73" height="30" viewBox="0 0 73 30" fill="none" xmlns="http://www.w3.org/2000/svg">
<g clip-path="url(#clip0_1181_1742)">
<path fill-rule="evenodd" clip-rule="evenodd" d="M73 0H62.97L53.08 14.975V0H43.55L43.547 11.735H36.777V3.803H30.122L30.12 11.735H23.304C23.828 10.652 24.124 9.434 24.124 8.145C24.124 3.649 20.167 0.005 15.738 0H0V30H9.506V7.67H11.401C13.397 7.67 15.014 9.312 15.014 11.338C15.014 13.361 13.396 14.997 11.403 15L17.42 30H27.53L22.79 18.362H30.122V26.297H36.776V18.362H43.55V30H53.08L73 0Z" fill="white"/>
</g>
<defs>
<clipPath id="clip0_1181_1742">
<rect width="73" height="30" fill="white"/>
</clipPath>
</defs>
</svg>
